<?xml version="1.0" standalone="no"?>
<!DOCTYPE svg PUBLIC "-//W3C//DTD SVG 20010904//EN"
 "http://www.w3.org/TR/2001/REC-SVG-20010904/DTD/svg10.dtd">
<svg version="1.0" xmlns="http://www.w3.org/2000/svg"
 width="1280.000000pt" height="1280.000000pt" viewBox="0 0 1280.000000 1280.000000"
 preserveAspectRatio="xMidYMid meet">
<metadata>
Created by potrace 1.11, written by Peter Selinger 2001-2013
</metadata>
<g transform="translate(0.000000,1280.000000) scale(0.100000,-0.100000)"
fill="#000000" stroke="none">
<path d="M3172 9140 c-103 -27 -253 -95 -322 -146 -43 -32 -65 -57 -86 -101
-28 -55 -29 -65 -31 -208 -1 -82 -2 -160 -2 -172 -1 -17 -28 -37 -131 -95 -71
-40 -130 -76 -130 -79 0 -18 61 0 93 27 21 17 71 50 113 74 l75 43 138 -46
c188 -63 304 -81 500 -75 174 6 260 26 374 90 212 119 388 391 363 559 -10 67
-19 75 -48 46 -13 -13 -55 -34 -92 -47 -104 -34 -154 -26 -331 54 -80 37 -174
73 -208 81 -84 20 -187 18 -275 -5z"/>
<path d="M4575 9060 c-93 -29 -203 -137 -226 -223 -7 -24 -9 -79 -6 -129 4
-77 8 -93 37 -137 69 -109 170 -166 290 -166 63 0 85 5 132 29 31 16 75 47 97
70 l41 42 -45 43 -46 44 -27 -26 c-103 -96 -230 -90 -316 16 -25 31 -31 49
-34 102 -4 56 -1 70 22 109 57 97 182 130 279 72 26 -14 53 -36 62 -48 l15
-23 46 47 47 46 -44 44 c-65 65 -128 92 -219 95 -41 1 -88 -2 -105 -7z"/>
<path d="M4970 8735 l0 -335 200 0 200 0 0 70 0 70 -135 0 -135 0 0 50 0 50
115 0 115 0 0 60 0 59 -112 3 -113 3 -3 88 -3 87 136 0 135 0 0 65 0 65 -200
0 -200 0 0 -335z"/>
<path d="M5422 8738 l3 -333 60 0 60 0 3 204 2 204 67 -104 c36 -57 89 -140
118 -184 28 -44 57 -90 64 -103 11 -20 19 -23 64 -20 l52 3 3 265 2 265 75 -3
75 -4 2 -261 3 -262 63 -3 62 -3 0 265 0 265 78 3 77 3 0 65 0 65 -277 2 -278
2 0 -207 c-1 -187 -2 -205 -16 -187 -14 18 -152 241 -216 349 l-28 46 -60 0
-60 0 2 -332z"/>
<path d="M6365 8745 c-4 -205 -3 -331 3 -337 5 -5 36 -8 68 -6 l59 3 3 73 3
72 49 0 48 0 49 -72 48 -73 73 -3 c39 -2 72 1 72 6 0 4 -20 38 -44 74 -72 108
-71 99 -22 150 64 67 81 153 51 256 -19 62 -61 113 -124 150 -43 25 -55 27
-187 30 l-141 4 -8 -327z m299 153 c95 -83 34 -217 -101 -221 l-58 -2 -3 128
-3 127 64 0 c57 0 67 -3 101 -32z"/>
<path d="M7110 9054 c-93 -34 -168 -104 -210 -195 -14 -32 -20 -66 -20 -125 0
-70 4 -89 31 -142 34 -68 95 -129 167 -164 38 -19 64 -23 132 -23 73 0 93 4
142 28 74 36 128 91 164 163 25 50 29 71 28 139 0 67 -5 90 -28 139 -57 117
-161 186 -289 193 -49 2 -86 -2 -117 -13z m194 -147 c22 -12 53 -39 70 -60 28
-35 31 -45 31 -111 0 -82 -21 -124 -81 -165 -132 -91 -314 7 -314 167 0 62 46
136 105 169 54 31 136 31 189 0z"/>
<path d="M7805 9058 c-3 -7 -4 -157 -3 -333 l3 -320 130 0 c124 0 133 1 188
30 81 40 152 120 173 192 22 77 15 195 -15 254 -32 62 -93 122 -159 155 -52
27 -68 29 -184 33 -101 2 -129 0 -133 -11z m269 -151 c63 -36 99 -88 104 -151
6 -70 -10 -115 -55 -160 -36 -36 -109 -66 -160 -66 l-23 0 0 200 0 200 48 0
c30 0 61 -8 86 -23z"/>
<path d="M8357 9064 c-4 -4 -7 -155 -7 -336 l0 -328 205 0 c157 0 205 3 205
13 1 6 2 36 4 65 l3 52 -138 0 -139 0 0 50 0 50 110 0 110 0 0 65 0 65 -110 0
-110 0 0 85 0 84 138 3 137 3 0 65 0 65 -201 3 c-110 1 -203 -1 -207 -4z"/>
<path d="M2317 8693 c-4 -3 -7 -15 -7 -25 0 -10 -5 -27 -12 -37 -9 -15 -7 -29
10 -69 12 -27 28 -86 36 -131 8 -45 16 -84 18 -86 2 -2 17 -5 33 -7 l30 -3 -3
155 c-3 187 -10 210 -62 210 -20 0 -40 -3 -43 -7z"/>
<path d="M10023 8460 l-203 -99 0 -66 0 -67 33 7 c17 3 95 23 172 45 77 21
158 42 180 47 l40 9 3 112 c2 86 0 112 -10 112 -7 -1 -104 -45 -215 -100z"/>
<path d="M1810 8311 c-126 -23 -212 -53 -298 -104 -82 -49 -165 -124 -156
-139 4 -6 3 -8 -3 -5 -5 4 -19 -2 -29 -13 -26 -25 -93 -99 -127 -139 l-29 -33
69 6 c48 4 62 3 48 -4 -14 -7 0 -8 48 -4 40 4 67 2 67 -3 0 -5 24 -10 53 -10
28 -1 61 -2 72 -3 11 0 35 2 54 6 24 5 32 3 27 -5 -5 -8 8 -11 43 -11 51 0 91
23 91 51 0 17 99 177 133 216 44 50 183 151 272 197 28 15 23 16 -105 15 -79
-1 -175 -8 -230 -18z m-137 -428 c-7 -2 -19 -2 -25 0 -7 3 -2 5 12 5 14 0 19
-2 13 -5z"/>
<path d="M4360 7595 l0 -555 100 0 100 0 0 348 c1 275 3 343 13 330 7 -9 44
-67 82 -128 39 -61 95 -150 126 -198 30 -48 93 -147 140 -219 l84 -133 83 0
82 0 0 555 0 555 -95 0 -95 0 -2 -347 -3 -348 -64 105 c-35 58 -79 130 -98
160 -19 30 -86 138 -148 240 l-113 185 -96 3 -96 3 0 -556z"/>
<path d="M5247 8143 c-11 -10 -8 -685 3 -744 25 -135 120 -256 249 -318 72
-34 81 -36 182 -36 101 0 108 1 181 38 86 42 152 100 192 170 52 89 56 120 56
525 l0 372 -105 0 c-93 0 -105 -2 -105 -17 0 -10 -1 -169 -2 -354 l-3 -335
-30 -59 c-20 -40 -45 -69 -73 -90 -38 -26 -52 -30 -110 -30 -86 0 -140 29
-185 99 l-32 51 -3 367 -3 368 -103 0 c-56 0 -106 -3 -109 -7z"/>
<path d="M6120 8040 l0 -110 125 0 125 0 0 -445 0 -446 108 3 107 3 3 443 2
442 125 0 125 0 0 110 0 110 -360 0 -360 0 0 -110z"/>
<path d="M6860 7595 l0 -555 105 0 104 0 3 118 3 117 90 3 90 2 79 -120 79
-120 118 0 c75 0 119 4 119 10 0 6 -37 68 -83 138 -46 70 -88 135 -94 145 -8
15 1 29 51 80 71 72 103 132 117 219 24 149 -18 287 -121 389 -109 110 -178
129 -457 129 l-203 0 0 -555z m456 312 c110 -57 148 -211 77 -309 -17 -24 -52
-55 -79 -70 -44 -25 -59 -28 -146 -28 l-98 0 0 216 0 217 108 -5 c72 -3 117
-10 138 -21z"/>
<path d="M7750 7595 l0 -555 105 0 105 0 0 555 0 555 -105 0 -105 0 0 -555z"/>
<path d="M8482 8130 c-102 -27 -166 -64 -242 -140 -108 -108 -153 -203 -166
-356 -18 -195 86 -404 250 -503 108 -65 178 -85 301 -85 98 0 117 3 180 29 39
15 86 38 105 50 45 29 150 132 150 148 0 14 -120 137 -134 137 -4 0 -32 -22
-62 -49 -174 -159 -443 -112 -544 94 -21 42 -25 65 -25 140 0 108 22 163 97
238 72 72 123 91 238 91 84 0 101 -3 149 -28 30 -15 76 -51 103 -79 l50 -50
71 71 70 70 -17 27 c-24 37 -84 95 -133 129 -114 77 -299 105 -441 66z"/>
<path d="M9160 7595 l0 -555 105 0 105 0 0 555 0 555 -105 0 -105 0 0 -555z"/>
<path d="M9892 8130 c-104 -28 -167 -65 -247 -145 -216 -216 -221 -555 -10
-770 195 -200 489 -229 724 -72 145 98 231 266 231 450 -1 198 -87 361 -250
468 -119 79 -306 108 -448 69z m271 -224 c82 -34 152 -105 196 -201 8 -17 14
-63 15 -110 0 -68 -4 -88 -28 -133 -65 -126 -170 -194 -301 -196 -136 -1 -243
60 -305 175 -33 60 -35 70 -35 154 0 81 3 96 32 150 46 89 119 149 207 172 61
15 170 10 219 -11z"/>
<path d="M10680 7595 l0 -555 100 0 100 0 2 343 3 342 28 -40 c37 -54 345
-537 380 -597 l28 -48 84 0 85 0 0 555 0 555 -100 0 -100 0 0 -342 0 -343 -77
125 c-42 69 -112 184 -156 255 -44 72 -94 153 -112 180 -17 28 -42 67 -54 88
l-23 37 -94 0 -94 0 0 -555z"/>
<path d="M800 7804 c-56 -117 -122 -316 -124 -372 l-1 -44 140 -29 c77 -16
149 -29 160 -29 36 0 49 -15 36 -39 -15 -27 -15 -84 0 -358 l12 -222 36 -5
c42 -7 364 -23 638 -32 105 -3 215 -9 245 -14 139 -20 -243 -10 -887 24 -132
7 -242 11 -244 9 -3 -2 14 -74 37 -161 40 -149 91 -282 109 -282 4 0 35 -4 68
-10 183 -28 999 -77 1470 -87 301 -6 697 8 880 32 118 16 143 28 182 84 22 33
78 194 109 316 10 39 23 73 28 77 6 4 43 8 82 8 39 0 86 3 104 6 48 10 62 52
68 208 l5 129 -114 -7 c-246 -16 -1810 23 -2234 54 -71 6 -135 10 -142 10 -18
0 -36 78 -31 138 5 55 17 72 47 66 9 -2 196 -13 416 -25 324 -17 473 -20 780
-16 209 3 418 10 465 16 47 6 144 18 217 26 73 9 152 22 175 28 42 13 43 14
40 52 -6 82 -34 208 -73 330 l-40 127 -142 -6 c-78 -3 -394 -8 -702 -12 -609
-6 -987 4 -1325 36 -180 17 -257 28 -411 56 l-37 6 -42 -88z m597 -720 c-3 -3
-12 -4 -19 -1 -8 3 -5 6 6 6 11 1 17 -2 13 -5z m636 -431 c-7 -2 -19 -2 -25 0
-7 3 -2 5 12 5 14 0 19 -2 13 -5z"/>
<path d="M2068 7823 c7 -3 16 -2 19 1 4 3 -2 6 -13 5 -11 0 -14 -3 -6 -6z"/>
<path d="M2228 7813 c12 -2 30 -2 40 0 9 3 -1 5 -23 4 -22 0 -30 -2 -17 -4z"/>
<path d="M2413 7803 c15 -2 37 -2 50 0 12 2 0 4 -28 4 -27 0 -38 -2 -22 -4z"/>
<path d="M4400 6165 l0 -656 128 3 127 3 2 653 3 652 -130 0 -130 0 0 -655z"/>
<path d="M4780 6165 l0 -656 123 3 122 3 5 402 5 402 21 -32 c12 -17 96 -151
189 -297 92 -146 182 -287 200 -315 18 -27 49 -76 69 -107 l36 -58 100 0 100
0 0 655 0 655 -115 0 -115 0 0 -407 c0 -472 14 -445 -118 -228 -44 72 -103
168 -132 215 -95 154 -193 314 -224 367 l-31 52 -117 1 -118 0 0 -655z"/>
<path d="M5760 6690 l0 -130 150 0 150 0 2 -522 3 -523 128 -3 127 -3 0 526 0
525 155 0 155 0 0 -525 0 -525 400 0 400 0 0 130 0 130 -270 0 -270 0 0 100 0
100 220 0 220 0 0 130 0 130 -220 0 -220 0 0 165 0 165 270 0 270 0 0 130 0
130 -835 0 -835 0 0 -130z"/>
<path d="M8017 6806 c-232 -67 -411 -252 -473 -486 -19 -73 -19 -239 1 -314
56 -212 228 -392 441 -462 76 -25 105 -29 199 -29 94 0 123 4 199 29 111 37
211 102 299 195 l67 71 0 200 0 200 -370 0 -371 0 3 -112 3 -113 248 -3 247
-2 0 -38 c0 -49 -40 -89 -135 -134 -66 -31 -76 -33 -180 -33 -105 0 -113 2
-180 34 -83 41 -149 105 -190 187 -28 55 -30 67 -30 169 0 99 3 116 27 168 31
65 115 155 174 185 62 31 139 45 224 40 102 -6 169 -39 263 -128 l70 -68 93
85 93 85 -36 45 c-81 98 -184 170 -310 214 -76 27 -303 36 -376 15z"/>
<path d="M8842 6168 l3 -653 130 0 130 0 3 138 3 137 104 0 104 0 92 -140 93
-140 273 0 273 0 11 28 c6 15 15 50 20 77 5 28 14 65 20 83 l11 32 206 -2 206
-3 9 -40 c5 -22 18 -70 28 -107 l20 -68 130 0 131 0 -7 33 c-4 17 -24 86 -45
152 -21 66 -61 197 -90 290 -29 94 -67 217 -85 275 -18 58 -54 175 -80 260
-26 85 -58 187 -70 225 l-22 70 -136 3 -136 3 -16 -58 c-15 -54 -50 -171 -145
-493 -20 -69 -56 -190 -80 -270 -24 -80 -60 -201 -81 -270 -20 -69 -40 -140
-44 -157 -4 -18 -10 -35 -14 -37 -4 -3 -58 74 -121 171 -102 160 -111 177 -94
186 35 18 119 113 148 166 40 75 56 143 56 246 0 152 -39 250 -142 361 -43 45
-80 73 -144 105 l-87 44 -283 3 -284 3 2 -653z m519 377 c117 -40 190 -179
155 -298 -21 -74 -63 -127 -127 -162 -50 -27 -61 -29 -164 -30 -60 0 -111 3
-112 8 -2 4 -3 117 -3 252 l0 245 103 0 c67 0 119 -5 148 -15z m989 -205 c18
-63 50 -177 71 -252 21 -75 39 -139 39 -142 0 -3 -65 -6 -145 -6 -80 0 -145 3
-145 7 0 4 17 70 39 148 21 77 51 187 66 245 28 104 34 124 40 118 1 -2 17
-55 35 -118z"/>
<path d="M10870 6165 l0 -655 335 0 335 0 0 130 0 130 -205 0 -205 0 0 525 0
525 -130 0 -130 0 0 -655z"/>
<path d="M950 6205 c0 -9 115 -209 153 -265 240 -356 488 -499 943 -544 453
-45 730 -2 1044 160 160 82 317 231 448 422 25 36 94 174 89 178 -1 1 -37 -4
-79 -12 -320 -55 -879 -57 -1778 -4 -184 11 -366 22 -405 25 -114 9 -346 34
-382 41 -18 3 -33 3 -33 -1z"/>
<path d="M8100 5130 c-1499 -4 -3780 -10 -5070 -14 -1290 -3 -2351 -6 -2357
-6 -7 0 -13 -12 -13 -27 l0 -26 2062 6 c1135 4 3402 9 5038 12 1636 3 3269 8
3628 11 l652 6 0 24 0 24 -607 -2 c-335 -1 -1834 -5 -3333 -8z"/>
<path d="M5692 4803 c-18 -9 -48 -34 -67 -56 -120 -139 -140 -561 -34 -696 27
-34 88 -71 117 -71 58 0 142 70 195 161 36 63 64 156 50 170 -18 18 -30 3 -53
-66 -12 -36 -41 -92 -65 -125 -71 -96 -130 -114 -191 -57 -50 46 -74 136 -74
282 0 248 73 425 175 425 46 0 75 -28 90 -85 9 -38 17 -50 31 -50 16 0 19 7
17 39 -3 49 -30 95 -73 123 -39 27 -73 29 -118 6z"/>
<path d="M8913 4813 c-10 -4 -13 -75 -12 -316 1 -381 8 -492 29 -492 13 0 15
50 11 400 -1 220 -6 403 -10 406 -3 4 -12 4 -18 2z"/>
<path d="M1545 4695 c-4 -63 -4 -241 0 -395 6 -222 11 -282 22 -291 17 -15
165 -15 282 0 89 11 113 23 94 42 -8 8 -46 8 -145 -1 -73 -7 -149 -10 -168 -9
l-35 4 -3 383 c-2 365 -3 382 -21 382 -17 0 -19 -12 -26 -115z"/>
<path d="M3347 4563 c-4 -136 -7 -293 -7 -348 l0 -100 -34 55 c-19 30 -62 102
-97 160 -34 58 -74 125 -89 150 -32 53 -87 154 -133 242 -23 44 -39 64 -54 66
-16 2 -24 -3 -28 -20 -3 -13 -4 -187 -3 -388 3 -357 3 -365 23 -365 20 0 20 8
25 340 3 187 6 334 8 326 4 -26 323 -566 384 -650 10 -15 23 -21 32 -18 15 6
16 49 14 399 -3 350 -5 393 -19 396 -14 2 -17 -26 -22 -245z"/>
<path d="M3923 4802 c-7 -5 -13 -39 -15 -82 -3 -66 -5 -75 -23 -78 -55 -8 -66
-13 -63 -30 2 -13 12 -16 40 -14 l36 3 5 -248 c4 -276 10 -306 65 -355 30 -26
41 -29 75 -25 43 6 74 28 62 46 -4 7 -23 9 -53 5 -56 -7 -74 7 -91 71 -15 61
-25 277 -16 399 l7 107 39 -2 c51 -4 73 16 35 31 -15 5 -39 10 -53 10 l-26 0
7 74 c5 55 3 76 -7 84 -7 6 -18 8 -24 4z"/>
<path d="M4612 4793 c-10 -24 -9 -761 1 -796 5 -19 13 -27 25 -25 13 2 17 13
17 46 -1 23 -2 211 -3 417 -2 329 -4 375 -17 375 -9 0 -19 -8 -23 -17z"/>
<path d="M10551 4797 c-6 -6 -11 -43 -11 -84 l0 -73 -29 0 c-16 0 -36 -3 -45
-6 -19 -7 -21 -34 -3 -35 6 0 25 -2 41 -2 l29 -2 2 -245 c1 -225 3 -249 23
-292 22 -51 69 -88 112 -88 31 0 70 26 70 46 0 12 -9 14 -46 8 -39 -5 -49 -3
-70 17 -13 12 -29 39 -34 58 -14 49 -23 362 -13 436 l8 60 36 1 c19 0 41 4 49
9 20 13 -17 35 -58 35 l-35 0 7 79 c6 63 4 79 -7 84 -8 3 -20 0 -26 -6z"/>
<path d="M1985 4700 c-8 -13 3 -30 20 -30 14 0 27 24 18 34 -10 9 -31 7 -38
-4z"/>
<path d="M4685 4700 c-8 -14 3 -30 21 -30 8 0 14 9 14 20 0 21 -24 28 -35 10z"/>
<path d="M9145 4684 c-28 -31 -33 -64 -9 -64 9 0 25 12 36 26 20 25 21 25 42
6 44 -40 66 -46 95 -24 14 10 27 27 29 36 5 23 -25 31 -46 13 -15 -14 -20 -13
-47 9 -39 31 -70 30 -100 -2z"/>
<path d="M10382 4693 c2 -10 10 -18 18 -18 8 0 16 8 18 18 2 12 -3 17 -18 17
-15 0 -20 -5 -18 -17z"/>
<path d="M3650 4567 c-122 -39 -255 -322 -220 -467 22 -90 103 -128 171 -79
36 25 103 145 125 222 9 32 20 60 24 62 4 2 10 -48 14 -113 9 -152 17 -197 36
-197 17 0 17 -3 6 240 -9 212 -12 227 -38 223 -17 -2 -27 -23 -54 -113 -69
-226 -133 -320 -199 -295 -94 36 -35 309 94 435 42 40 62 45 140 33 32 -4 38
17 9 36 -34 22 -68 26 -108 13z"/>
<path d="M4366 4565 c-78 -27 -154 -130 -198 -267 -32 -99 -35 -169 -12 -227
36 -90 135 -95 201 -11 22 27 76 144 94 200 l17 55 7 -90 c14 -185 31 -253 55
-229 8 8 8 50 0 140 -6 71 -14 172 -18 224 -6 86 -9 95 -28 98 -18 3 -23 -7
-43 -80 -37 -136 -99 -274 -138 -308 -41 -37 -57 -37 -90 -4 -24 24 -25 29
-20 107 6 106 26 167 80 247 68 102 110 122 195 95 18 -6 22 -4 22 14 0 16
-10 26 -35 37 -41 17 -40 17 -89 -1z"/>
<path d="M5016 4565 c-77 -27 -149 -124 -196 -263 -18 -53 -30 -111 -30 -141
0 -134 87 -200 180 -136 40 28 100 135 130 234 l18 56 7 -90 c14 -185 31 -253
55 -229 8 8 8 50 0 140 -6 71 -14 172 -18 224 -6 86 -9 95 -28 98 -18 3 -23
-7 -43 -80 -37 -136 -99 -274 -138 -308 -41 -36 -57 -37 -88 -5 -76 75 27 389
147 451 29 15 55 15 106 -1 18 -6 22 -4 22 14 0 16 -10 26 -35 37 -41 17 -40
17 -89 -1z"/>
<path d="M6211 4569 c-104 -31 -231 -256 -231 -412 0 -70 20 -117 59 -140 87
-51 160 8 230 190 l38 97 7 -105 c12 -170 29 -230 57 -202 8 8 8 33 0 95 -7
45 -15 146 -19 223 -6 126 -9 140 -25 140 -14 0 -27 -26 -58 -115 -22 -63 -46
-131 -53 -150 -18 -52 -62 -117 -92 -137 -24 -15 -29 -15 -53 -2 -41 23 -53
56 -47 127 11 127 111 311 187 342 27 12 45 11 97 -5 18 -6 22 -4 22 14 0 16
-10 26 -35 37 -39 16 -38 16 -84 3z"/>
<path d="M7225 4561 c-111 -51 -215 -246 -215 -405 0 -100 39 -156 109 -156
71 0 138 85 192 244 l28 81 0 -49 c2 -114 24 -278 39 -283 23 -9 29 13 20 85
-4 37 -11 137 -15 222 -8 151 -9 155 -30 158 -13 2 -23 1 -23 -1 0 -20 -75
-238 -102 -298 -33 -71 -75 -119 -103 -119 -26 0 -64 42 -71 77 -24 128 101
384 201 409 13 3 39 1 56 -5 61 -21 69 19 9 43 -49 20 -46 20 -95 -3z"/>
<path d="M7669 4560 c-50 -26 -131 -117 -151 -171 l-17 -44 0 57 c-1 60 -12
78 -36 58 -21 -17 -22 -442 -2 -459 23 -19 37 9 37 74 0 193 79 385 183 445
34 20 47 43 30 53 -5 3 -24 -3 -44 -13z"/>
<path d="M10000 4560 c-49 -26 -104 -85 -139 -150 l-31 -55 0 52 c0 52 -13 74
-32 55 -10 -10 -14 -445 -3 -462 3 -5 12 -7 19 -4 10 4 16 35 21 107 4 56 13
130 21 165 25 114 93 217 169 258 19 10 34 25 33 33 -4 22 -19 22 -58 1z"/>
<path d="M10288 4552 c-54 -31 -101 -86 -134 -156 l-23 -50 -3 60 c-2 44 -7
59 -18 59 -19 0 -28 -81 -28 -270 0 -157 6 -200 28 -200 11 0 17 26 26 115 7
63 18 140 24 170 23 104 85 198 163 247 35 22 44 42 21 50 -5 1 -30 -10 -56
-25z"/>
<path d="M10980 4553 c-42 -22 -64 -44 -102 -98 -75 -110 -91 -161 -92 -288
l-1 -109 33 -29 c39 -35 90 -39 132 -9 40 28 92 119 126 220 l29 85 6 -120 c7
-149 17 -205 36 -212 23 -9 31 15 22 58 -7 31 -30 333 -27 358 4 37 -4 52 -24
49 -13 -2 -24 -11 -26 -23 -10 -55 -98 -285 -125 -326 -39 -60 -68 -74 -106
-54 -36 18 -41 32 -41 106 0 105 61 247 140 324 41 40 61 45 139 33 32 -4 38
17 9 36 -45 29 -71 29 -128 -1z"/>
<path d="M2182 4532 c-95 -95 -141 -336 -85 -449 39 -81 132 -107 201 -57 40
29 95 93 127 149 15 26 17 37 8 46 -13 13 -27 0 -88 -85 -23 -32 -57 -65 -81
-77 -37 -20 -45 -21 -73 -9 -54 22 -74 76 -69 184 7 139 59 261 121 287 39 16
58 -5 65 -70 4 -50 27 -76 39 -45 10 27 -4 105 -24 133 -15 19 -30 27 -61 29
-36 3 -45 -1 -80 -36z"/>
<path d="M8304 4551 c-38 -23 -66 -61 -102 -138 -24 -52 -27 -69 -27 -173 0
-129 14 -174 67 -212 98 -69 232 -2 283 143 17 48 20 177 4 232 -12 44 -102
141 -139 149 -14 3 -32 8 -40 12 -8 3 -29 -3 -46 -13z m114 -67 c49 -38 82
-114 82 -190 0 -82 -24 -148 -75 -200 -38 -41 -45 -44 -92 -44 -44 0 -55 4
-76 30 -39 46 -50 93 -44 182 5 83 46 189 90 236 27 29 64 24 115 -14z"/>
<path d="M9194 4556 c-39 -17 -107 -111 -131 -179 l-18 -52 -5 95 c-5 102 -13
128 -35 110 -16 -14 -8 -521 9 -532 21 -13 28 10 37 121 18 212 114 409 195
399 60 -7 83 -106 84 -361 0 -126 2 -149 16 -154 31 -12 36 19 30 192 -6 163
-20 267 -43 310 -29 54 -86 75 -139 51z"/>
<path d="M9425 4560 c-4 -7 -10 -96 -13 -198 -6 -218 5 -277 63 -340 30 -33
39 -37 83 -37 125 0 179 126 170 395 -5 145 -11 173 -37 168 -11 -3 -15 -12
-13 -33 1 -17 3 -93 4 -170 3 -221 -36 -320 -126 -313 -33 2 -44 9 -62 35 -35
53 -48 148 -39 297 12 203 12 200 -7 204 -9 2 -19 -2 -23 -8z"/>
<path d="M1994 4524 c-7 -40 3 -393 14 -479 6 -41 11 -50 27 -50 16 0 20 6 18
30 -2 17 -6 142 -10 280 -7 223 -10 250 -25 253 -13 2 -19 -6 -24 -34z"/>
<path d="M4694 4534 c-8 -31 3 -424 14 -494 6 -36 11 -45 27 -45 16 0 20 6 18
30 -2 17 -6 142 -10 280 -7 224 -10 250 -25 253 -12 2 -19 -5 -24 -24z"/>
<path d="M6440 4545 c-10 -11 -11 -70 -5 -269 4 -139 11 -259 15 -266 4 -7 15
-10 23 -7 11 4 15 41 20 184 3 98 11 194 16 214 15 47 52 103 73 107 41 8 70
-132 67 -326 0 -68 1 -126 4 -129 4 -3 13 -3 20 0 11 4 16 39 22 144 11 210
47 298 131 319 37 9 53 -2 77 -53 20 -44 22 -65 23 -253 2 -192 3 -205 20
-205 22 0 31 59 33 220 2 166 -24 270 -78 319 -17 15 -30 18 -71 13 -60 -7
-103 -37 -129 -90 l-20 -40 -11 27 c-5 15 -10 33 -10 40 0 24 -45 56 -79 56
-24 0 -41 -9 -62 -31 -16 -17 -30 -36 -31 -43 0 -6 -4 9 -7 33 -6 48 -21 61
-41 36z"/>
<path d="M10393 4544 c-8 -21 3 -515 12 -536 4 -10 16 -18 27 -18 19 0 20 4
14 53 -3 28 -9 157 -12 285 -6 188 -10 232 -21 232 -7 0 -16 -7 -20 -16z"/>
<path d="M7981 4539 c-109 -43 -241 -251 -241 -378 0 -43 31 -98 63 -110 14
-6 34 -4 57 5 50 20 160 141 195 215 l30 62 7 -44 c3 -24 7 -104 7 -177 1
-154 -6 -177 -72 -241 -36 -34 -54 -44 -90 -48 -52 -6 -84 8 -97 43 -10 24
-34 32 -45 14 -3 -5 1 -24 8 -43 19 -43 60 -61 131 -55 132 11 215 127 216
300 0 94 -30 332 -44 346 -23 23 -42 2 -65 -72 -38 -124 -183 -288 -229 -260
-22 14 -27 74 -12 141 15 67 93 188 150 231 43 31 93 42 105 22 3 -5 15 -10
26 -10 31 0 24 37 -11 55 -33 17 -54 18 -89 4z"/>
<path d="M2485 4040 c-4 -7 -3 -16 3 -22 14 -14 45 -2 40 15 -6 16 -34 21 -43
7z"/>
<path d="M5822 3761 c-24 -12 -49 -20 -55 -18 -25 5 -30 -527 -5 -576 20 -40
28 -3 22 107 l-7 113 81 43 c99 51 155 108 176 180 28 96 -16 160 -116 167
-38 3 -65 -2 -96 -16z m155 -36 c78 -51 8 -192 -132 -265 l-60 -31 -3 133 c-3
128 -2 133 20 150 50 38 128 43 175 13z"/>
<path d="M6847 3764 c-9 -9 -7 -551 1 -582 4 -13 12 -22 17 -20 12 3 7 588 -4
601 -4 4 -10 4 -14 1z"/>
<path d="M6445 3741 c-40 -24 -56 -50 -90 -141 -36 -98 -46 -243 -21 -316 23
-69 81 -133 127 -141 73 -11 130 39 165 146 13 40 16 77 12 169 -4 111 -6 123
-40 194 -27 56 -45 81 -67 92 -38 20 -49 20 -86 -3z m71 -28 c51 -33 94 -162
94 -284 0 -81 -30 -186 -64 -222 -55 -59 -136 -26 -173 72 -42 108 -1 345 72
418 38 38 38 38 71 16z"/>
<path d="M7044 3716 c-59 -62 -85 -137 -92 -263 -6 -129 2 -181 36 -232 47
-70 95 -91 158 -71 61 21 103 102 119 235 13 111 -28 277 -84 335 -52 55 -81
54 -137 -4z m132 -43 c35 -51 57 -172 51 -271 -9 -147 -50 -222 -119 -222 -42
0 -64 15 -96 63 -26 40 -27 47 -26 167 1 148 22 216 85 282 36 39 40 40 61 26
13 -8 32 -29 44 -45z"/>
<path d="M5267 3743 c-9 -8 -9 -412 0 -520 4 -60 10 -83 19 -83 11 0 14 49 14
263 1 246 2 260 17 232 9 -16 36 -60 60 -97 66 -102 83 -97 179 57 l44 70 0
-251 c0 -204 3 -254 14 -263 10 -8 16 -9 21 -1 3 6 4 142 1 303 -5 242 -9 293
-21 295 -8 2 -24 -17 -40 -48 -32 -62 -110 -186 -123 -194 -11 -6 -67 74 -107
155 -38 76 -61 100 -78 82z"/>
<path d="M7495 3741 c-37 -9 -91 -37 -100 -52 -16 -26 13 -29 56 -5 61 33 113
39 140 17 18 -14 20 -20 9 -37 -18 -29 -85 -76 -133 -94 -25 -9 -43 -23 -45
-34 -3 -16 0 -18 19 -12 13 5 49 10 79 13 50 5 59 2 87 -21 90 -76 76 -224
-26 -293 -49 -33 -141 -32 -196 2 -46 28 -65 31 -65 10 0 -22 82 -65 136 -71
136 -16 243 79 244 215 0 36 -7 70 -21 98 -23 47 -74 93 -105 93 -14 0 -9 9
24 43 50 51 55 85 16 116 -27 21 -64 25 -119 12z"/>
<path d="M5670 3176 c0 -9 7 -16 16 -16 9 0 14 5 12 12 -6 18 -28 21 -28 4z"/>
</g>
</svg>
