<?xml version="1.0" standalone="no"?>
<!DOCTYPE svg PUBLIC "-//W3C//DTD SVG 20010904//EN"
 "http://www.w3.org/TR/2001/REC-SVG-20010904/DTD/svg10.dtd">
<svg version="1.0" xmlns="http://www.w3.org/2000/svg"
 width="200.000000pt" height="200.000000pt" viewBox="0 0 200.000000 200.000000"
 preserveAspectRatio="xMidYMid meet">
<metadata>
Created by potrace 1.16, written by Peter Selinger 2001-2019
</metadata>
<g transform="translate(0.000000,200.000000) scale(0.100000,-0.100000)"
fill="#000000" stroke="none">
<path d="M615 1090 c-11 -4 -31 -20 -45 -35 -35 -37 -35 -112 -1 -149 33 -35
88 -50 145 -42 l46 7 0 55 c0 47 -2 54 -20 54 -17 0 -20 -7 -20 -44 0 -38 -3
-45 -24 -50 -82 -20 -149 90 -96 157 24 30 78 44 109 28 18 -10 21 -9 21 9 0
17 -6 20 -47 19 -27 0 -57 -4 -68 -9z"/>
<path d="M839 1003 c-20 -54 -40 -106 -44 -115 -5 -13 -2 -18 9 -18 9 0 20 15
27 40 12 39 13 40 59 40 46 0 47 -1 59 -40 9 -30 17 -40 32 -40 13 0 19 5 16
13 -3 6 -24 57 -46 112 -54 135 -65 136 -112 8z"/>
<path d="M1385 985 c0 -98 2 -115 16 -115 13 0 15 13 11 85 -3 47 -1 85 4 85
5 -1 40 -41 77 -90 38 -50 72 -90 78 -90 5 0 9 46 9 104 0 57 3 111 6 120 4
11 0 16 -12 16 -17 0 -19 -8 -16 -92 2 -57 0 -89 -5 -83 -6 6 -38 47 -73 93
-87 114 -95 111 -95 -33z"/>
<path d="M1661 1074 c-62 -52 -58 -147 8 -191 42 -28 76 -29 119 -3 69 42 79
134 22 192 -39 38 -105 40 -149 2z m110 -7 c67 -51 45 -177 -31 -177 -42 0
-59 9 -75 41 -35 67 0 148 65 148 14 0 32 -5 41 -12z"/>
</g>
</svg>
