<?xml version="1.0" standalone="no"?>
<!DOCTYPE svg PUBLIC "-//W3C//DTD SVG 20010904//EN"
 "http://www.w3.org/TR/2001/REC-SVG-20010904/DTD/svg10.dtd">
<svg version="1.0" xmlns="http://www.w3.org/2000/svg"
 width="250.000000pt" height="120.000000pt" viewBox="0 0 250.000000 120.000000"
 preserveAspectRatio="xMidYMid meet">
<metadata>
Created by potrace 1.16, written by Peter Selinger 2001-2019
</metadata>
<g transform="translate(0.000000,120.000000) scale(0.100000,-0.100000)"
fill="#000000" stroke="none">
<path d="M320 750 l0 -370 935 0 935 0 0 370 0 370 -935 0 -935 0 0 -370z
m375 125 c22 -36 44 -64 49 -62 5 2 25 31 45 65 l36 61 95 1 94 0 -36 -37
c-19 -21 -63 -74 -98 -118 l-62 -79 4 -73 5 -73 -86 0 -86 0 3 75 4 75 -77 97
c-43 54 -86 106 -97 116 -19 16 -17 17 73 17 l94 -1 40 -64z m765 47 c50 -24
76 -81 61 -131 -21 -72 -80 -101 -205 -101 l-68 0 4 -65 4 -65 -88 0 -88 0 0
190 0 190 173 0 c144 0 178 -3 207 -18z m530 -24 l0 -43 -110 3 -110 3 0 -40
0 -41 95 0 95 0 0 -45 0 -45 -96 0 -95 0 2 -62 3 -63 -87 -3 -87 -3 0 191 0
190 195 0 195 0 0 -42z"/>
</g>
</svg>
