<?xml version="1.0" standalone="no"?>
<!DOCTYPE svg PUBLIC "-//W3C//DTD SVG 20010904//EN"
 "http://www.w3.org/TR/2001/REC-SVG-20010904/DTD/svg10.dtd">
<svg version="1.0" xmlns="http://www.w3.org/2000/svg"
 width="504.000000pt" height="100.000000pt" viewBox="0 0 504.000000 100.000000"
 preserveAspectRatio="xMidYMid meet">
<metadata>
Created by potrace 1.16, written by Peter Selinger 2001-2019
</metadata>
<g transform="translate(0.000000,100.000000) scale(0.100000,-0.100000)"
fill="#000000" stroke="none">
<path d="M1139 841 c-64 -21 -99 -63 -99 -120 0 -58 45 -89 173 -122 76 -19
96 -50 57 -89 -28 -28 -125 -28 -180 0 -51 26 -52 26 -48 -12 3 -30 8 -35 53
-51 59 -21 157 -17 206 8 18 10 37 31 45 52 29 68 -5 121 -90 144 -100 27
-135 41 -140 55 -22 56 18 89 97 81 28 -3 62 -8 75 -12 19 -6 22 -4 22 18 0
16 -8 31 -19 36 -27 15 -121 22 -152 12z"/>
<path d="M170 725 l0 -115 120 0 120 0 0 115 0 115 -120 0 -120 0 0 -115z"/>
<path d="M600 725 l0 -115 120 0 120 0 0 115 0 115 -120 0 -120 0 0 -115z"/>
<path d="M4620 630 l0 -200 120 0 120 0 0 25 c0 24 -2 24 -87 27 l-88 3 -3
173 -2 172 -30 0 -30 0 0 -200z"/>
<path d="M2120 759 c-47 -13 -80 -52 -80 -93 0 -49 18 -65 105 -94 59 -20 81
-32 83 -46 9 -43 -73 -61 -143 -32 l-35 15 0 -29 c0 -23 6 -30 31 -39 71 -25
176 -5 198 37 15 28 14 74 -2 96 -7 10 -49 30 -92 44 -83 28 -100 47 -74 79
11 12 28 14 81 11 66 -5 68 -5 68 18 0 13 -7 25 -17 28 -42 12 -91 14 -123 5z"/>
<path d="M2425 755 c-50 -18 -75 -48 -75 -90 0 -44 41 -79 112 -95 61 -15 78
-25 78 -51 0 -38 -88 -53 -144 -24 -37 19 -36 20 -36 -15 0 -25 5 -30 38 -39
82 -23 168 -6 192 38 14 27 13 74 -3 95 -7 10 -49 30 -92 44 -82 28 -100 47
-75 77 15 18 101 20 131 5 17 -10 19 -7 19 19 0 20 -6 31 -17 35 -49 14 -92
14 -128 1z"/>
<path d="M4040 759 c-70 -21 -110 -81 -110 -166 1 -117 91 -182 219 -157 26 5
31 11 31 34 0 27 0 27 -44 17 -52 -12 -89 -4 -115 24 -42 45 -35 151 12 184
25 17 99 20 128 5 17 -10 19 -7 19 19 0 20 -6 31 -17 35 -43 12 -91 14 -123 5z"/>
<path d="M1362 748 c3 -7 29 -82 59 -166 51 -144 55 -153 79 -150 25 3 25 4
87 176 9 23 19 40 22 37 3 -4 22 -52 42 -108 32 -90 40 -102 62 -105 28 -3 21
-17 101 206 l44 123 -32 -3 c-30 -3 -32 -6 -70 -116 -21 -62 -41 -111 -43
-108 -3 3 -22 53 -43 113 -32 94 -40 108 -61 111 -22 3 -27 -6 -64 -112 -21
-63 -42 -113 -45 -110 -3 3 -21 53 -41 112 -35 105 -36 107 -69 110 -24 3 -31
0 -28 -10z"/>
<path d="M1910 595 l0 -165 30 0 30 0 0 165 0 165 -30 0 -30 0 0 -165z"/>
<path d="M2790 595 l0 -165 25 0 c24 0 24 1 27 103 l3 102 40 -72 c33 -61 44
-73 66 -73 21 0 30 10 54 60 48 100 55 98 55 -19 l0 -101 25 0 25 0 0 165 0
165 -24 0 c-21 0 -33 -15 -77 -100 -30 -55 -56 -100 -60 -100 -3 0 -29 45 -58
100 -44 85 -56 100 -77 100 l-24 0 0 -165z"/>
<path d="M3180 595 l0 -165 110 0 110 0 0 25 c0 25 -1 25 -81 25 l-80 0 3 48
3 47 73 0 c68 0 72 1 72 22 0 21 -5 22 -72 25 l-73 3 -3 43 -3 42 80 0 c80 0
81 0 81 25 l0 25 -110 0 -110 0 0 -165z"/>
<path d="M3460 594 l0 -166 93 4 c155 7 200 48 195 175 -3 60 -7 76 -28 99
-38 41 -80 54 -175 54 l-85 0 0 -166z m201 87 c24 -24 29 -38 29 -76 0 -65
-22 -102 -68 -116 -20 -6 -51 -9 -67 -7 l-30 3 -3 113 -3 112 56 0 c49 0 60
-4 86 -29z"/>
<path d="M3810 595 l0 -165 30 0 30 0 0 165 0 165 -30 0 -30 0 0 -165z"/>
<path d="M4361 738 c-5 -13 -26 -59 -46 -103 -21 -44 -50 -108 -66 -142 l-28
-63 32 0 c28 0 34 5 49 40 l17 40 79 0 79 0 18 -40 c15 -34 23 -40 48 -40 35
0 39 -15 -51 182 -63 138 -69 148 -95 148 -19 0 -30 -7 -36 -22z"/>
<path d="M170 290 l0 -120 120 0 120 0 0 120 0 120 -120 0 -120 0 0 -120z"/>
<path d="M600 290 l0 -120 120 0 120 0 0 120 0 120 -120 0 -120 0 0 -120z"/>
</g>
</svg>
